# xmcd
#
# Track frame offsets: 
#        150
#        16206
#        29944
#        42444
#        62875
#        74633
#        86914
#        96969
#        118669
#        130260
#        141355
#        153068
#
# Disc length: 2232 seconds
#
# Revision: 5
# Processed by: cddbd v1.5.2PL0 Copyright (c) Steve Scherf et al.
# Submitted via: ExactAudioCopyFreeDBPlugin 1.0
#
DISCID=b308b60c
DTITLE=Emmylou Harris - 1987 - Angel Band
DYEAR=1987
DGENRE=Country
TTITLE0=Where Could I Go But To The Lord
TTITLE1=Angel Band
TTITLE2=If I Be Lifted Up
TTITLE3=Precious Memories
TTITLE4=Bright Morning Stars
TTITLE5=When He Calls
TTITLE6=We Shall Rise
TTITLE7=Drifting Too Far
TTITLE8=Who Will Sing For Me
TTITLE9=Someday My Ship Will Sail
TTITLE10=The Other Side Of Life
TTITLE11=When They Ring Those Golden Bells
EXTD=YEAR: 1987
EXTT0=
EXTT1=
EXTT2=
EXTT3=
EXTT4=
EXTT5=
EXTT6=
EXTT7=
EXTT8=
EXTT9=
EXTT10=
EXTT11=
PLAYORDER=
